# Blender v2.93.5 OBJ File: ''
# www.blender.org
mtllib bv_sphere.mtl
o Sphere_Sphere.001
v 0.000000 0.353553 -0.353553
v 0.000000 0.191342 -0.461940
v 0.000000 -0.191342 -0.461940
v 0.000000 -0.461940 -0.191342
v 0.073223 0.461940 -0.176777
v 0.135299 0.353553 -0.326641
v 0.176777 0.191342 -0.426777
v 0.191342 -0.000000 -0.461940
v 0.176777 -0.191342 -0.426777
v 0.135299 -0.353553 -0.326641
v 0.073223 -0.461940 -0.176777
v 0.135299 0.461940 -0.135299
v 0.250000 0.353553 -0.250000
v 0.326641 0.191342 -0.326641
v 0.353553 -0.000000 -0.353553
v 0.326641 -0.191342 -0.326641
v 0.250000 -0.353553 -0.250000
v 0.135299 -0.461940 -0.135299
v 0.176777 0.461940 -0.073223
v 0.326641 0.353553 -0.135299
v 0.426777 0.191342 -0.176777
v 0.461940 -0.000000 -0.191342
v 0.426777 -0.191342 -0.176777
v 0.326641 -0.353553 -0.135299
v 0.176777 -0.461940 -0.073223
v 0.191342 0.461940 0.000000
v 0.353553 0.353553 0.000000
v 0.461940 0.191342 0.000000
v 0.500000 -0.000000 0.000000
v 0.461940 -0.191342 0.000000
v 0.353553 -0.353553 0.000000
v 0.191342 -0.461940 0.000000
v 0.176777 0.461940 0.073223
v 0.326641 0.353553 0.135299
v 0.426777 0.191342 0.176777
v 0.461940 -0.000000 0.191342
v 0.426777 -0.191342 0.176777
v 0.326641 -0.353553 0.135299
v 0.176777 -0.461940 0.073223
v 0.135299 0.461940 0.135299
v 0.250000 0.353553 0.250000
v 0.326641 0.191342 0.326641
v 0.353553 -0.000000 0.353554
v 0.326641 -0.191342 0.326641
v 0.250000 -0.353553 0.250000
v 0.135299 -0.461940 0.135299
v 0.073223 0.461940 0.176777
v 0.135299 0.353553 0.326641
v 0.176777 0.191342 0.426777
v 0.191342 -0.000000 0.461940
v 0.176777 -0.191342 0.426777
v 0.135299 -0.353553 0.326641
v 0.073223 -0.461940 0.176777
v -0.000000 0.500000 0.000000
v -0.000000 0.461940 0.191342
v -0.000000 0.353553 0.353553
v -0.000000 0.191342 0.461940
v -0.000000 -0.000000 0.500000
v -0.000000 -0.191342 0.461940
v -0.000000 -0.353553 0.353553
v -0.000000 -0.461940 0.191342
v -0.073223 0.461940 0.176777
v -0.135299 0.353553 0.326641
v -0.176777 0.191342 0.426777
v -0.191342 -0.000000 0.461940
v -0.176777 -0.191342 0.426777
v -0.135299 -0.353553 0.326641
v -0.073223 -0.461940 0.176777
v -0.135299 0.461940 0.135299
v -0.250000 0.353553 0.250000
v -0.326641 0.191342 0.326641
v -0.353554 -0.000000 0.353553
v -0.326641 -0.191342 0.326641
v -0.250000 -0.353553 0.250000
v -0.135299 -0.461940 0.135299
v 0.000000 -0.500000 0.000000
v -0.176777 0.461940 0.073223
v -0.326641 0.353553 0.135299
v -0.426777 0.191342 0.176777
v -0.461940 -0.000000 0.191342
v -0.426777 -0.191342 0.176777
v -0.326641 -0.353553 0.135299
v -0.176777 -0.461940 0.073223
v -0.191342 0.461940 -0.000000
v -0.353553 0.353553 -0.000000
v -0.461940 0.191342 -0.000000
v -0.500000 -0.000000 -0.000000
v -0.461940 -0.191342 -0.000000
v -0.353553 -0.353553 -0.000000
v -0.191342 -0.461940 -0.000000
v -0.176777 0.461940 -0.073223
v -0.326641 0.353553 -0.135299
v -0.426776 0.191342 -0.176777
v -0.461940 -0.000000 -0.191342
v -0.426776 -0.191342 -0.176777
v -0.326641 -0.353553 -0.135299
v -0.176777 -0.461940 -0.073223
v -0.135299 0.461940 -0.135299
v -0.250000 0.353553 -0.250000
v -0.326640 0.191342 -0.326641
v -0.353553 -0.000000 -0.353554
v -0.326640 -0.191342 -0.326641
v -0.250000 -0.353553 -0.250000
v -0.135299 -0.461940 -0.135299
v -0.073223 0.461940 -0.176777
v -0.135299 0.353553 -0.326641
v -0.176776 0.191342 -0.426777
v -0.191341 -0.000000 -0.461940
v -0.176776 -0.191342 -0.426777
v -0.135299 -0.353553 -0.326641
v -0.073223 -0.461940 -0.176777
v 0.000000 0.461940 -0.191342
v 0.000000 -0.000000 -0.500000
v 0.000000 -0.353553 -0.353553
vt 0.750000 0.250000
vt 0.687500 0.125000
vt 0.750000 0.125000
vt 0.750000 0.500000
vt 0.687500 0.375000
vt 0.750000 0.375000
vt 0.750000 0.750000
vt 0.687500 0.625000
vt 0.750000 0.625000
vt 0.750000 0.875000
vt 0.718750 1.000000
vt 0.687500 0.875000
vt 0.718750 0.000000
vt 0.687500 0.250000
vt 0.687500 0.500000
vt 0.687500 0.750000
vt 0.656250 1.000000
vt 0.625000 0.875000
vt 0.656250 0.000000
vt 0.625000 0.125000
vt 0.625000 0.250000
vt 0.625000 0.500000
vt 0.625000 0.750000
vt 0.625000 0.375000
vt 0.625000 0.625000
vt 0.562500 0.250000
vt 0.562500 0.500000
vt 0.562500 0.750000
vt 0.562500 0.125000
vt 0.562500 0.375000
vt 0.562500 0.625000
vt 0.593750 1.000000
vt 0.562500 0.875000
vt 0.593750 0.000000
vt 0.500000 0.125000
vt 0.500000 0.375000
vt 0.500000 0.625000
vt 0.531250 1.000000
vt 0.500000 0.875000
vt 0.531250 0.000000
vt 0.500000 0.250000
vt 0.500000 0.500000
vt 0.500000 0.750000
vt 0.437500 0.375000
vt 0.437500 0.750000
vt 0.437500 0.625000
vt 0.468750 1.000000
vt 0.437500 0.875000
vt 0.468750 0.000000
vt 0.437500 0.125000
vt 0.437500 0.250000
vt 0.437500 0.500000
vt 0.406250 0.000000
vt 0.375000 0.125000
vt 0.375000 0.250000
vt 0.375000 0.500000
vt 0.375000 0.750000
vt 0.375000 0.375000
vt 0.375000 0.625000
vt 0.406250 1.000000
vt 0.375000 0.875000
vt 0.312500 0.500000
vt 0.312500 0.750000
vt 0.312500 0.250000
vt 0.312500 0.125000
vt 0.312500 0.375000
vt 0.312500 0.625000
vt 0.343750 1.000000
vt 0.312500 0.875000
vt 0.343750 0.000000
vt 0.250000 0.250000
vt 0.250000 0.125000
vt 0.250000 0.375000
vt 0.250000 0.625000
vt 0.281250 1.000000
vt 0.250000 0.875000
vt 0.281250 0.000000
vt 0.250000 0.500000
vt 0.250000 0.750000
vt 0.187500 0.625000
vt 0.218750 1.000000
vt 0.187500 0.875000
vt 0.218750 0.000000
vt 0.187500 0.125000
vt 0.187500 0.250000
vt 0.187500 0.500000
vt 0.187500 0.750000
vt 0.187500 0.375000
vt 0.156250 0.000000
vt 0.125000 0.125000
vt 0.125000 0.250000
vt 0.125000 0.500000
vt 0.125000 0.750000
vt 0.125000 0.375000
vt 0.125000 0.625000
vt 0.156250 1.000000
vt 0.125000 0.875000
vt 0.062500 0.750000
vt 0.062500 0.250000
vt 0.062500 0.125000
vt 0.062500 0.375000
vt 0.062500 0.625000
vt 0.093750 1.000000
vt 0.062500 0.875000
vt 0.093750 0.000000
vt 0.062500 0.500000
vt 0.000000 0.125000
vt 0.000000 0.375000
vt 0.000000 0.750000
vt 0.000000 0.625000
vt 0.031250 1.000000
vt 0.000000 0.875000
vt 0.031250 0.000000
vt 0.000000 0.250000
vt 0.000000 0.500000
vt 1.000000 0.875000
vt 0.968750 1.000000
vt 0.937500 0.875000
vt 0.968750 0.000000
vt 1.000000 0.125000
vt 0.937500 0.125000
vt 1.000000 0.375000
vt 0.937500 0.250000
vt 1.000000 0.250000
vt 1.000000 0.500000
vt 0.937500 0.625000
vt 0.937500 0.500000
vt 0.937500 0.750000
vt 1.000000 0.750000
vt 0.937500 0.375000
vt 1.000000 0.625000
vt 0.875000 0.250000
vt 0.875000 0.625000
vt 0.875000 0.500000
vt 0.875000 0.750000
vt 0.875000 0.125000
vt 0.875000 0.375000
vt 0.906250 1.000000
vt 0.875000 0.875000
vt 0.906250 0.000000
vt 0.812500 0.125000
vt 0.812500 0.375000
vt 0.812500 0.750000
vt 0.812500 0.625000
vt 0.843750 1.000000
vt 0.812500 0.875000
vt 0.843750 0.000000
vt 0.812500 0.250000
vt 0.812500 0.500000
vt 0.781250 1.000000
vt 0.781250 0.000000
vn 0.1098 -0.8264 -0.5522
vn 0.1915 -0.1915 -0.9626
vn 0.1632 0.5481 -0.8203
vn 0.0388 0.9800 -0.1949
vn 0.0388 -0.9800 -0.1949
vn 0.1632 -0.5481 -0.8203
vn 0.1915 0.1915 -0.9626
vn 0.1098 0.8264 -0.5522
vn 0.1104 0.9800 -0.1653
vn 0.1104 -0.9800 -0.1653
vn 0.4647 -0.5481 -0.6954
vn 0.5453 0.1915 -0.8161
vn 0.3128 0.8264 -0.4681
vn 0.3128 -0.8264 -0.4681
vn 0.5453 -0.1915 -0.8161
vn 0.4647 0.5481 -0.6954
vn 0.6954 -0.5481 -0.4647
vn 0.8161 0.1915 -0.5453
vn 0.4681 0.8264 -0.3128
vn 0.4681 -0.8264 -0.3128
vn 0.8161 -0.1915 -0.5453
vn 0.6954 0.5481 -0.4647
vn 0.1653 0.9800 -0.1104
vn 0.1653 -0.9800 -0.1104
vn 0.5522 -0.8264 -0.1098
vn 0.9626 -0.1915 -0.1915
vn 0.8203 0.5481 -0.1632
vn 0.1949 0.9800 -0.0388
vn 0.1949 -0.9800 -0.0388
vn 0.8203 -0.5481 -0.1632
vn 0.9626 0.1915 -0.1915
vn 0.5522 0.8264 -0.1098
vn 0.9626 -0.1915 0.1915
vn 0.8203 0.5481 0.1632
vn 0.1949 0.9800 0.0388
vn 0.1949 -0.9800 0.0388
vn 0.8203 -0.5481 0.1632
vn 0.9626 0.1915 0.1915
vn 0.5522 0.8264 0.1098
vn 0.5522 -0.8264 0.1098
vn 0.1653 -0.9800 0.1104
vn 0.6954 -0.5481 0.4647
vn 0.8161 0.1915 0.5453
vn 0.4681 0.8264 0.3128
vn 0.4681 -0.8264 0.3128
vn 0.8161 -0.1915 0.5453
vn 0.6954 0.5481 0.4647
vn 0.1653 0.9800 0.1104
vn 0.5453 0.1915 0.8161
vn 0.3128 0.8264 0.4681
vn 0.3128 -0.8264 0.4681
vn 0.5453 -0.1915 0.8161
vn 0.4647 0.5481 0.6954
vn 0.1104 0.9800 0.1653
vn 0.1104 -0.9800 0.1653
vn 0.4647 -0.5481 0.6954
vn 0.1098 -0.8264 0.5522
vn 0.1915 -0.1915 0.9626
vn 0.1632 0.5481 0.8203
vn 0.0388 0.9800 0.1949
vn 0.0388 -0.9800 0.1949
vn 0.1632 -0.5481 0.8203
vn 0.1915 0.1915 0.9626
vn 0.1098 0.8264 0.5522
vn -0.1632 0.5481 0.8203
vn -0.0388 0.9800 0.1949
vn -0.0388 -0.9800 0.1949
vn -0.1632 -0.5481 0.8203
vn -0.1915 0.1915 0.9626
vn -0.1098 0.8264 0.5522
vn -0.1098 -0.8264 0.5522
vn -0.1915 -0.1915 0.9626
vn -0.1104 -0.9800 0.1653
vn -0.4647 -0.5481 0.6954
vn -0.5453 0.1915 0.8161
vn -0.3128 0.8264 0.4681
vn -0.3128 -0.8264 0.4681
vn -0.5453 -0.1915 0.8161
vn -0.4647 0.5481 0.6954
vn -0.1104 0.9800 0.1653
vn -0.4681 0.8264 0.3128
vn -0.4681 -0.8264 0.3128
vn -0.8161 -0.1915 0.5453
vn -0.6954 0.5481 0.4647
vn -0.1653 0.9800 0.1104
vn -0.1653 -0.9800 0.1104
vn -0.6954 -0.5481 0.4647
vn -0.8161 0.1915 0.5453
vn -0.5522 -0.8264 0.1098
vn -0.9626 -0.1915 0.1915
vn -0.8203 0.5481 0.1632
vn -0.1949 0.9800 0.0388
vn -0.1949 -0.9800 0.0388
vn -0.8203 -0.5481 0.1632
vn -0.9626 0.1915 0.1915
vn -0.5522 0.8264 0.1098
vn -0.1949 0.9800 -0.0388
vn -0.1949 -0.9800 -0.0388
vn -0.8203 -0.5481 -0.1632
vn -0.9626 0.1915 -0.1915
vn -0.5522 0.8264 -0.1098
vn -0.5522 -0.8264 -0.1098
vn -0.9626 -0.1915 -0.1915
vn -0.8203 0.5481 -0.1632
vn -0.6954 -0.5481 -0.4647
vn -0.8161 0.1915 -0.5453
vn -0.4681 0.8264 -0.3128
vn -0.4681 -0.8264 -0.3128
vn -0.8161 -0.1915 -0.5453
vn -0.6954 0.5481 -0.4647
vn -0.1653 0.9800 -0.1104
vn -0.1653 -0.9800 -0.1104
vn -0.3128 -0.8264 -0.4681
vn -0.5453 -0.1915 -0.8161
vn -0.4647 0.5481 -0.6954
vn -0.1104 0.9800 -0.1653
vn -0.1104 -0.9800 -0.1653
vn -0.4647 -0.5481 -0.6954
vn -0.5453 0.1915 -0.8161
vn -0.3128 0.8264 -0.4681
vn -0.1915 -0.1915 -0.9626
vn -0.1632 0.5481 -0.8203
vn -0.0388 0.9800 -0.1949
vn -0.0388 -0.9800 -0.1949
vn -0.1632 -0.5481 -0.8203
vn -0.1915 0.1915 -0.9626
vn -0.1098 0.8264 -0.5522
vn -0.1098 -0.8264 -0.5522
usemtl None
s off
f 114/1/1 11/2/1 4/3/1
f 113/4/2 9/5/2 3/6/2
f 1/7/3 7/8/3 2/9/3
f 112/10/4 54/11/4 5/12/4
f 76/13/5 4/3/5 11/2/5
f 114/1/6 9/5/6 10/14/6
f 113/4/7 7/8/7 8/15/7
f 112/10/8 6/16/8 1/7/8
f 5/12/9 54/17/9 12/18/9
f 76/19/10 11/2/10 18/20/10
f 9/5/11 17/21/11 10/14/11
f 7/8/12 15/22/12 8/15/12
f 5/12/13 13/23/13 6/16/13
f 10/14/14 18/20/14 11/2/14
f 8/15/15 16/24/15 9/5/15
f 6/16/16 14/25/16 7/8/16
f 16/24/17 24/26/17 17/21/17
f 14/25/18 22/27/18 15/22/18
f 12/18/19 20/28/19 13/23/19
f 17/21/20 25/29/20 18/20/20
f 15/22/21 23/30/21 16/24/21
f 13/23/22 21/31/22 14/25/22
f 12/18/23 54/32/23 19/33/23
f 76/34/24 18/20/24 25/29/24
f 24/26/25 32/35/25 25/29/25
f 22/27/26 30/36/26 23/30/26
f 20/28/27 28/37/27 21/31/27
f 19/33/28 54/38/28 26/39/28
f 76/40/29 25/29/29 32/35/29
f 23/30/30 31/41/30 24/26/30
f 22/27/31 28/37/31 29/42/31
f 20/28/32 26/39/32 27/43/32
f 29/42/33 37/44/33 30/36/33
f 28/37/34 34/45/34 35/46/34
f 26/39/35 54/47/35 33/48/35
f 76/49/36 32/35/36 39/50/36
f 30/36/37 38/51/37 31/41/37
f 28/37/38 36/52/38 29/42/38
f 26/39/39 34/45/39 27/43/39
f 32/35/40 38/51/40 39/50/40
f 76/53/41 39/50/41 46/54/41
f 37/44/42 45/55/42 38/51/42
f 35/46/43 43/56/43 36/52/43
f 33/48/44 41/57/44 34/45/44
f 38/51/45 46/54/45 39/50/45
f 36/52/46 44/58/46 37/44/46
f 35/46/47 41/57/47 42/59/47
f 33/48/48 54/60/48 40/61/48
f 42/59/49 50/62/49 43/56/49
f 40/61/50 48/63/50 41/57/50
f 46/54/51 52/64/51 53/65/51
f 44/58/52 50/62/52 51/66/52
f 42/59/53 48/63/53 49/67/53
f 40/61/54 54/68/54 47/69/54
f 76/70/55 46/54/55 53/65/55
f 44/58/56 52/64/56 45/55/56
f 53/65/57 60/71/57 61/72/57
f 50/62/58 59/73/58 51/66/58
f 48/63/59 57/74/59 49/67/59
f 47/69/60 54/75/60 55/76/60
f 76/77/61 53/65/61 61/72/61
f 51/66/62 60/71/62 52/64/62
f 49/67/63 58/78/63 50/62/63
f 47/69/64 56/79/64 48/63/64
f 56/79/65 64/80/65 57/74/65
f 55/76/66 54/81/66 62/82/66
f 76/83/67 61/72/67 68/84/67
f 59/73/68 67/85/68 60/71/68
f 58/78/69 64/80/69 65/86/69
f 55/76/70 63/87/70 56/79/70
f 60/71/71 68/84/71 61/72/71
f 59/73/72 65/86/72 66/88/72
f 76/89/73 68/84/73 75/90/73
f 66/88/74 74/91/74 67/85/74
f 64/80/75 72/92/75 65/86/75
f 62/82/76 70/93/76 63/87/76
f 68/84/77 74/91/77 75/90/77
f 65/86/78 73/94/78 66/88/78
f 63/87/79 71/95/79 64/80/79
f 62/82/80 54/96/80 69/97/80
f 69/97/81 78/98/81 70/93/81
f 75/90/82 82/99/82 83/100/82
f 72/92/83 81/101/83 73/94/83
f 70/93/84 79/102/84 71/95/84
f 69/97/85 54/103/85 77/104/85
f 76/105/86 75/90/86 83/100/86
f 73/94/87 82/99/87 74/91/87
f 71/95/88 80/106/88 72/92/88
f 82/99/89 90/107/89 83/100/89
f 80/106/90 88/108/90 81/101/90
f 79/102/91 85/109/91 86/110/91
f 77/104/92 54/111/92 84/112/92
f 76/113/93 83/100/93 90/107/93
f 81/101/94 89/114/94 82/99/94
f 80/106/95 86/110/95 87/115/95
f 77/104/96 85/109/96 78/98/96
f 84/116/97 54/117/97 91/118/97
f 76/119/98 90/120/98 97/121/98
f 88/122/99 96/123/99 89/124/99
f 87/125/100 93/126/100 94/127/100
f 84/116/101 92/128/101 85/129/101
f 89/124/102 97/121/102 90/120/102
f 87/125/103 95/130/103 88/122/103
f 86/131/104 92/128/104 93/126/104
f 95/130/105 103/132/105 96/123/105
f 94/127/106 100/133/106 101/134/106
f 91/118/107 99/135/107 92/128/107
f 96/123/108 104/136/108 97/121/108
f 94/127/109 102/137/109 95/130/109
f 93/126/110 99/135/110 100/133/110
f 91/118/111 54/138/111 98/139/111
f 76/140/112 97/121/112 104/136/112
f 103/132/113 111/141/113 104/136/113
f 101/134/114 109/142/114 102/137/114
f 100/133/115 106/143/115 107/144/115
f 98/139/116 54/145/116 105/146/116
f 76/147/117 104/136/117 111/141/117
f 102/137/118 110/148/118 103/132/118
f 101/134/119 107/144/119 108/149/119
f 98/139/120 106/143/120 99/135/120
f 108/149/121 3/6/121 109/142/121
f 107/144/122 1/7/122 2/9/122
f 105/146/123 54/150/123 112/10/123
f 76/151/124 111/141/124 4/3/124
f 109/142/125 114/1/125 110/148/125
f 108/149/126 2/9/126 113/4/126
f 105/146/127 1/7/127 106/143/127
f 110/148/128 4/3/128 111/141/128
f 114/1/1 10/14/1 11/2/1
f 113/4/2 8/15/2 9/5/2
f 1/7/3 6/16/3 7/8/3
f 114/1/6 3/6/6 9/5/6
f 113/4/7 2/9/7 7/8/7
f 112/10/8 5/12/8 6/16/8
f 9/5/11 16/24/11 17/21/11
f 7/8/12 14/25/12 15/22/12
f 5/12/13 12/18/13 13/23/13
f 10/14/14 17/21/14 18/20/14
f 8/15/15 15/22/15 16/24/15
f 6/16/16 13/23/16 14/25/16
f 16/24/17 23/30/17 24/26/17
f 14/25/18 21/31/18 22/27/18
f 12/18/19 19/33/19 20/28/19
f 17/21/20 24/26/20 25/29/20
f 15/22/21 22/27/21 23/30/21
f 13/23/22 20/28/22 21/31/22
f 24/26/25 31/41/25 32/35/25
f 22/27/26 29/42/26 30/36/26
f 20/28/27 27/43/27 28/37/27
f 23/30/30 30/36/30 31/41/30
f 22/27/31 21/31/31 28/37/31
f 20/28/32 19/33/32 26/39/32
f 29/42/33 36/52/33 37/44/33
f 28/37/34 27/43/34 34/45/34
f 30/36/37 37/44/37 38/51/37
f 28/37/38 35/46/38 36/52/38
f 26/39/39 33/48/39 34/45/39
f 32/35/40 31/41/40 38/51/40
f 37/44/42 44/58/42 45/55/42
f 35/46/43 42/59/43 43/56/43
f 33/48/44 40/61/44 41/57/44
f 38/51/45 45/55/45 46/54/45
f 36/52/46 43/56/46 44/58/46
f 35/46/47 34/45/47 41/57/47
f 42/59/49 49/67/49 50/62/49
f 40/61/50 47/69/50 48/63/50
f 46/54/51 45/55/51 52/64/51
f 44/58/52 43/56/52 50/62/52
f 42/59/53 41/57/53 48/63/53
f 44/58/56 51/66/56 52/64/56
f 53/65/57 52/64/57 60/71/57
f 50/62/58 58/78/58 59/73/58
f 48/63/59 56/79/59 57/74/59
f 51/66/62 59/73/62 60/71/62
f 49/67/63 57/74/63 58/78/63
f 47/69/64 55/76/64 56/79/64
f 56/79/65 63/87/65 64/80/65
f 59/73/68 66/88/68 67/85/68
f 58/78/69 57/74/69 64/80/69
f 55/76/70 62/82/70 63/87/70
f 60/71/71 67/85/71 68/84/71
f 59/73/72 58/78/72 65/86/72
f 66/88/74 73/94/74 74/91/74
f 64/80/75 71/95/75 72/92/75
f 62/82/76 69/97/76 70/93/76
f 68/84/77 67/85/77 74/91/77
f 65/86/78 72/92/78 73/94/78
f 63/87/79 70/93/79 71/95/79
f 69/97/81 77/104/81 78/98/81
f 75/90/82 74/91/82 82/99/82
f 72/92/83 80/106/83 81/101/83
f 70/93/84 78/98/84 79/102/84
f 73/94/87 81/101/87 82/99/87
f 71/95/88 79/102/88 80/106/88
f 82/99/89 89/114/89 90/107/89
f 80/106/90 87/115/90 88/108/90
f 79/102/91 78/98/91 85/109/91
f 81/101/94 88/108/94 89/114/94
f 80/106/95 79/102/95 86/110/95
f 77/104/96 84/112/96 85/109/96
f 88/122/99 95/130/99 96/123/99
f 87/125/100 86/131/100 93/126/100
f 84/116/101 91/118/101 92/128/101
f 89/124/102 96/123/102 97/121/102
f 87/125/103 94/127/103 95/130/103
f 86/131/104 85/129/104 92/128/104
f 95/130/105 102/137/105 103/132/105
f 94/127/106 93/126/106 100/133/106
f 91/118/107 98/139/107 99/135/107
f 96/123/108 103/132/108 104/136/108
f 94/127/109 101/134/109 102/137/109
f 93/126/110 92/128/110 99/135/110
f 103/132/113 110/148/113 111/141/113
f 101/134/114 108/149/114 109/142/114
f 100/133/115 99/135/115 106/143/115
f 102/137/118 109/142/118 110/148/118
f 101/134/119 100/133/119 107/144/119
f 98/139/120 105/146/120 106/143/120
f 108/149/121 113/4/121 3/6/121
f 107/144/122 106/143/122 1/7/122
f 109/142/125 3/6/125 114/1/125
f 108/149/126 107/144/126 2/9/126
f 105/146/127 112/10/127 1/7/127
f 110/148/128 114/1/128 4/3/128
