# Blender v2.93.5 OBJ File: ''
# www.blender.org
mtllib cylindrical-peg.mtl
o Cylinder
v 0.000000 0.333333 -0.499999
v 0.000000 0.333333 0.499999
v 0.065030 0.326928 -0.499999
v 0.065030 0.326928 0.499999
v 0.127561 0.307960 -0.499999
v 0.127561 0.307959 0.499999
v 0.185190 0.277156 -0.499999
v 0.185190 0.277156 0.499999
v 0.235702 0.235702 -0.499999
v 0.235702 0.235702 0.499999
v 0.277156 0.185190 -0.499999
v 0.277156 0.185190 0.499999
v 0.307960 0.127561 -0.499999
v 0.307960 0.127561 0.499999
v 0.326928 0.065030 -0.499999
v 0.326928 0.065030 0.499999
v 0.333333 0.000000 -0.499999
v 0.333333 -0.000000 0.499999
v 0.326928 -0.065030 -0.499999
v 0.326928 -0.065030 0.499999
v 0.307960 -0.127561 -0.499999
v 0.307960 -0.127561 0.499999
v 0.277156 -0.185190 -0.499999
v 0.277156 -0.185190 0.499999
v 0.235702 -0.235702 -0.499999
v 0.235702 -0.235702 0.499999
v 0.185190 -0.277156 -0.499999
v 0.185190 -0.277156 0.499999
v 0.127561 -0.307959 -0.499999
v 0.127561 -0.307960 0.499999
v 0.065030 -0.326928 -0.499999
v 0.065030 -0.326928 0.499999
v -0.000000 -0.333333 -0.499999
v -0.000000 -0.333333 0.499999
v -0.065030 -0.326928 -0.499999
v -0.065030 -0.326928 0.499999
v -0.127561 -0.307959 -0.499999
v -0.127561 -0.307960 0.499999
v -0.185190 -0.277156 -0.499999
v -0.185190 -0.277156 0.499999
v -0.235702 -0.235702 -0.499999
v -0.235702 -0.235702 0.499999
v -0.277156 -0.185190 -0.499999
v -0.277156 -0.185190 0.499999
v -0.307960 -0.127561 -0.499999
v -0.307960 -0.127561 0.499999
v -0.326928 -0.065030 -0.499999
v -0.326928 -0.065030 0.499999
v -0.333333 0.000000 -0.499999
v -0.333333 -0.000000 0.499999
v -0.326928 0.065030 -0.499999
v -0.326928 0.065030 0.499999
v -0.307959 0.127561 -0.499999
v -0.307959 0.127561 0.499999
v -0.277156 0.185190 -0.499999
v -0.277156 0.185190 0.499999
v -0.235702 0.235702 -0.499999
v -0.235702 0.235702 0.499999
v -0.185190 0.277156 -0.499999
v -0.185190 0.277156 0.499999
v -0.127561 0.307960 -0.499999
v -0.127561 0.307959 0.499999
v -0.065030 0.326928 -0.499999
v -0.065030 0.326928 0.499999
vt 1.000000 0.991120
vt 0.968750 0.013406
vt 1.000000 0.013406
vt 0.968750 0.991120
vt 0.937500 0.013406
vt 0.937500 0.991120
vt 0.906250 0.013406
vt 0.906250 0.991120
vt 0.875000 0.013406
vt 0.875000 0.991120
vt 0.843750 0.013406
vt 0.843750 0.991120
vt 0.812500 0.013406
vt 0.812500 0.991120
vt 0.781250 0.013406
vt 0.781250 0.991120
vt 0.750000 0.013406
vt 0.750000 0.991120
vt 0.718750 0.013406
vt 0.718750 0.991120
vt 0.687500 0.013406
vt 0.687500 0.991120
vt 0.656250 0.013406
vt 0.656250 0.991120
vt 0.625000 0.013406
vt 0.625000 0.991120
vt 0.593750 0.013406
vt 0.593750 0.991120
vt 0.562500 0.013406
vt 0.562500 0.991120
vt 0.531250 0.013406
vt 0.531250 0.991120
vt 0.500000 0.013406
vt 0.500000 0.991120
vt 0.468750 0.013406
vt 0.468750 0.991120
vt 0.437500 0.013406
vt 0.437500 0.991120
vt 0.406250 0.013406
vt 0.406250 0.991120
vt 0.375000 0.013406
vt 0.375000 0.991120
vt 0.343750 0.013406
vt 0.343750 0.991120
vt 0.312500 0.013406
vt 0.312500 0.991120
vt 0.281250 0.013406
vt 0.281250 0.991120
vt 0.250000 0.013406
vt 0.250000 0.991120
vt 0.218750 0.013406
vt 0.218750 0.991120
vt 0.187500 0.013406
vt 0.187500 0.991120
vt 0.156250 0.013406
vt 0.156250 0.991120
vt 0.125000 0.013406
vt 0.125000 0.991120
vt 0.093750 0.013406
vt 0.093750 0.991120
vt 0.062500 0.013406
vt 0.166526 0.065589
vt 0.441215 0.322882
vt 0.327435 0.944042
vt 0.062500 0.991120
vt 0.031250 0.013406
vt 0.031250 0.991120
vt 0.000000 0.013406
vt 0.963666 0.608407
vt 0.792501 0.026686
vt 0.536334 0.415380
vt 0.287996 0.971096
vt 0.246981 0.980231
vt 0.205966 0.971096
vt 0.166526 0.944042
vt 0.130179 0.900109
vt 0.052747 0.686749
vt 0.098320 0.840985
vt 0.072175 0.768942
vt 0.040783 0.597564
vt 0.036743 0.504815
vt 0.040783 0.412066
vt 0.052747 0.322882
vt 0.072175 0.240689
vt 0.098320 0.168646
vt 0.130179 0.109522
vt 0.205966 0.038535
vt 0.246981 0.029400
vt 0.287996 0.038535
vt 0.327435 0.065589
vt 0.363783 0.109522
vt 0.395641 0.168646
vt 0.421787 0.240689
vt 0.453179 0.412066
vt 0.457219 0.504815
vt 0.453179 0.597564
vt 0.441215 0.686749
vt 0.421787 0.768942
vt 0.395641 0.840985
vt 0.363783 0.900109
vt 0.000000 0.991120
vt 0.707499 0.997101
vt 0.750000 1.006607
vt 0.792501 0.997101
vt 0.833368 0.968949
vt 0.871032 0.923233
vt 0.904044 0.861709
vt 0.931137 0.786741
vt 0.951269 0.701212
vt 0.967852 0.511894
vt 0.963666 0.415380
vt 0.951269 0.322575
vt 0.931137 0.237046
vt 0.904044 0.162079
vt 0.871032 0.100555
vt 0.833368 0.054838
vt 0.750000 0.017181
vt 0.628968 0.100555
vt 0.707499 0.026686
vt 0.666632 0.054838
vt 0.595955 0.162079
vt 0.568863 0.237046
vt 0.548731 0.322575
vt 0.532148 0.511894
vt 0.536334 0.608407
vt 0.548731 0.701212
vt 0.568863 0.786741
vt 0.595955 0.861709
vt 0.628968 0.923233
vt 0.666632 0.968949
vn 0.0980 0.9952 0.0000
vn 0.2903 0.9569 0.0000
vn 0.4714 0.8819 0.0000
vn 0.6344 0.7730 0.0000
vn 0.7730 0.6344 0.0000
vn 0.8819 0.4714 0.0000
vn 0.9569 0.2903 0.0000
vn 0.9952 0.0980 0.0000
vn 0.9952 -0.0980 -0.0000
vn 0.9569 -0.2903 -0.0000
vn 0.8819 -0.4714 -0.0000
vn 0.7730 -0.6344 -0.0000
vn 0.6344 -0.7730 -0.0000
vn 0.4714 -0.8819 -0.0000
vn 0.2903 -0.9569 -0.0000
vn 0.0980 -0.9952 -0.0000
vn -0.0980 -0.9952 -0.0000
vn -0.2903 -0.9569 -0.0000
vn -0.4714 -0.8819 -0.0000
vn -0.6344 -0.7730 -0.0000
vn -0.7730 -0.6344 -0.0000
vn -0.8819 -0.4714 0.0000
vn -0.9569 -0.2903 -0.0000
vn -0.9952 -0.0980 -0.0000
vn -0.9952 0.0980 0.0000
vn -0.9569 0.2903 0.0000
vn -0.8819 0.4714 0.0000
vn -0.7730 0.6344 0.0000
vn -0.6344 0.7730 0.0000
vn -0.4714 0.8819 0.0000
vn 0.0000 0.0000 1.0000
vn -0.2903 0.9569 0.0000
vn -0.0980 0.9952 0.0000
vn 0.0000 0.0000 -1.0000
usemtl Material.001
s off
f 2/1/1 3/2/1 1/3/1
f 4/4/2 5/5/2 3/2/2
f 6/6/3 7/7/3 5/5/3
f 8/8/4 9/9/4 7/7/4
f 10/10/5 11/11/5 9/9/5
f 12/12/6 13/13/6 11/11/6
f 14/14/7 15/15/7 13/13/7
f 16/16/8 17/17/8 15/15/8
f 18/18/9 19/19/9 17/17/9
f 20/20/10 21/21/10 19/19/10
f 22/22/11 23/23/11 21/21/11
f 24/24/12 25/25/12 23/23/12
f 26/26/13 27/27/13 25/25/13
f 28/28/14 29/29/14 27/27/14
f 30/30/15 31/31/15 29/29/15
f 32/32/16 33/33/16 31/31/16
f 34/34/17 35/35/17 33/33/17
f 36/36/18 37/37/18 35/35/18
f 38/38/19 39/39/19 37/37/19
f 40/40/20 41/41/20 39/39/20
f 42/42/21 43/43/21 41/41/21
f 44/44/22 45/45/22 43/43/22
f 46/46/23 47/47/23 45/45/23
f 48/48/24 49/49/24 47/47/24
f 50/50/25 51/51/25 49/49/25
f 52/52/26 53/53/26 51/51/26
f 54/54/27 55/55/27 53/53/27
f 56/56/28 57/57/28 55/55/28
f 58/58/29 59/59/29 57/57/29
f 60/60/30 61/61/30 59/59/30
f 38/62/31 22/63/31 6/64/31
f 62/65/32 63/66/32 61/61/32
f 64/67/33 1/68/33 63/66/33
f 15/69/34 31/70/34 47/71/34
f 2/1/1 4/4/1 3/2/1
f 4/4/2 6/6/2 5/5/2
f 6/6/3 8/8/3 7/7/3
f 8/8/4 10/10/4 9/9/4
f 10/10/5 12/12/5 11/11/5
f 12/12/6 14/14/6 13/13/6
f 14/14/7 16/16/7 15/15/7
f 16/16/8 18/18/8 17/17/8
f 18/18/9 20/20/9 19/19/9
f 20/20/10 22/22/10 21/21/10
f 22/22/11 24/24/11 23/23/11
f 24/24/12 26/26/12 25/25/12
f 26/26/13 28/28/13 27/27/13
f 28/28/14 30/30/14 29/29/14
f 30/30/15 32/32/15 31/31/15
f 32/32/16 34/34/16 33/33/16
f 34/34/17 36/36/17 35/35/17
f 36/36/18 38/38/18 37/37/18
f 38/38/19 40/40/19 39/39/19
f 40/40/20 42/42/20 41/41/20
f 42/42/21 44/44/21 43/43/21
f 44/44/22 46/46/22 45/45/22
f 46/46/23 48/48/23 47/47/23
f 48/48/24 50/50/24 49/49/24
f 50/50/25 52/52/25 51/51/25
f 52/52/26 54/54/26 53/53/26
f 54/54/27 56/56/27 55/55/27
f 56/56/28 58/58/28 57/57/28
f 58/58/29 60/60/29 59/59/29
f 60/60/30 62/65/30 61/61/30
f 6/64/31 4/72/31 2/73/31
f 2/73/31 64/74/31 62/75/31
f 62/75/31 60/76/31 54/77/31
f 60/76/31 58/78/31 54/77/31
f 58/78/31 56/79/31 54/77/31
f 54/77/31 52/80/31 50/81/31
f 50/81/31 48/82/31 46/83/31
f 46/83/31 44/84/31 38/62/31
f 44/84/31 42/85/31 38/62/31
f 42/85/31 40/86/31 38/62/31
f 38/62/31 36/87/31 34/88/31
f 34/88/31 32/89/31 30/90/31
f 30/90/31 28/91/31 26/92/31
f 26/92/31 24/93/31 22/63/31
f 22/63/31 20/94/31 18/95/31
f 18/95/31 16/96/31 22/63/31
f 16/96/31 14/97/31 22/63/31
f 14/97/31 12/98/31 10/99/31
f 10/99/31 8/100/31 6/64/31
f 6/64/31 2/73/31 54/77/31
f 2/73/31 62/75/31 54/77/31
f 54/77/31 50/81/31 38/62/31
f 50/81/31 46/83/31 38/62/31
f 38/62/31 34/88/31 22/63/31
f 34/88/31 30/90/31 22/63/31
f 30/90/31 26/92/31 22/63/31
f 14/97/31 10/99/31 22/63/31
f 10/99/31 6/64/31 22/63/31
f 6/64/31 54/77/31 38/62/31
f 62/65/32 64/67/32 63/66/32
f 64/67/33 2/101/33 1/68/33
f 63/102/34 1/103/34 3/104/34
f 3/104/34 5/105/34 7/106/34
f 7/106/34 9/107/34 11/108/34
f 11/108/34 13/109/34 15/69/34
f 15/69/34 17/110/34 19/111/34
f 19/111/34 21/112/34 23/113/34
f 23/113/34 25/114/34 27/115/34
f 27/115/34 29/116/34 31/70/34
f 31/70/34 33/117/34 39/118/34
f 33/117/34 35/119/34 39/118/34
f 35/119/34 37/120/34 39/118/34
f 39/118/34 41/121/34 43/122/34
f 43/122/34 45/123/34 47/71/34
f 47/71/34 49/124/34 51/125/34
f 51/125/34 53/126/34 47/71/34
f 53/126/34 55/127/34 47/71/34
f 55/127/34 57/128/34 59/129/34
f 59/129/34 61/130/34 55/127/34
f 61/130/34 63/102/34 55/127/34
f 63/102/34 3/104/34 15/69/34
f 3/104/34 7/106/34 15/69/34
f 7/106/34 11/108/34 15/69/34
f 15/69/34 19/111/34 23/113/34
f 23/113/34 27/115/34 15/69/34
f 27/115/34 31/70/34 15/69/34
f 39/118/34 43/122/34 47/71/34
f 31/70/34 39/118/34 47/71/34
f 47/71/34 55/127/34 63/102/34
f 63/102/34 15/69/34 47/71/34
